# xmcd
#
# Track frame offsets: 
#        150
#        9125
#        18937
#        29317
#        41125
#        49597
#        56127
#        66275
#        80280
#        94645
#        105527
#        116887
#        130627
#        144135
#        171017
#
# Disc length: 2401 seconds
#
# Revision: 0
# Processed by: cddbd v1.5.1PL0 Copyright (c) Steve Scherf et al.
# Submitted via: ExactAudioCopy v0.95a4
#
DISCID=b6095f0f
DTITLE=Various Artist - Country Clasics Vol.1
DYEAR=1900
DGENRE=Country
TTITLE0=Good Time Charlie
TTITLE1=Red Sails In The Sunset
TTITLE2=Three Cigarettes In An Ashtray
TTITLE3=I Hope So
TTITLE4=Abilene
TTITLE5=The Boy Who Didn't Pass
TTITLE6=Gone
TTITLE7=Wondering
TTITLE8=High Noon
TTITLE9=Down On The Corner Of Love
TTITLE10=Six Days On The Road
TTITLE11=Another Song, Another Drink
TTITLE12=Try To Remember
TTITLE13=I.O.U.
TTITLE14=Hello Walls
EXTD=
EXTT0=
EXTT1=
EXTT2=
EXTT3=
EXTT4=
EXTT5=
EXTT6=
EXTT7=
EXTT8=
EXTT9=
EXTT10=
EXTT11=
EXTT12=
EXTT13=
EXTT14=
PLAYORDER=
